<?xml version="1.0" encoding="UTF-8" standalone="no"?>
<!DOCTYPE svg PUBLIC "-//W3C//DTD SVG 1.1//EN"
 "http://www.w3.org/Graphics/SVG/1.1/DTD/svg11.dtd">
<!-- Generated by graphviz version 2.36.0 (20140111.2315)
 -->
<!-- Title: G Pages: 1 -->
<svg width="312pt" height="4254pt"
 viewBox="0.00 0.00 312.00 4254.00" xmlns="http://www.w3.org/2000/svg" xmlns:xlink="http://www.w3.org/1999/xlink">
<g id="graph0" class="graph" transform="scale(1 1) rotate(0) translate(4 4250)">
<title>G</title>
<polygon fill="white" stroke="none" points="-4,4 -4,-4250 308,-4250 308,4 -4,4"/>
<g id="clust1" class="cluster"><title>cluster_Global</title>
<path fill="none" stroke="gray" d="M154,-8C154,-8 284,-8 284,-8 290,-8 296,-14 296,-20 296,-20 296,-4226 296,-4226 296,-4232 290,-4238 284,-4238 284,-4238 154,-4238 154,-4238 148,-4238 142,-4232 142,-4226 142,-4226 142,-20 142,-20 142,-14 148,-8 154,-8"/>
<text text-anchor="middle" x="219" y="-4225.2" font-family="Times,serif" font-size="11.00" fill="gray">Global</text>
</g>
<!-- \\message_instation -->
<g id="node1" class="node"><title>\\message_instation</title>
<polygon fill="none" stroke="black" points="284.5,-4210 153.5,-4210 153.5,-4174 284.5,-4174 284.5,-4210"/>
<text text-anchor="middle" x="219" y="-4189.2" font-family="Courier,monospace" font-size="11.00">message_instation</text>
</g>
<!-- \\message_type -->
<g id="node2" class="node"><title>\\message_type</title>
<polygon fill="none" stroke="black" points="268,-4156 170,-4156 170,-4120 268,-4120 268,-4156"/>
<text text-anchor="middle" x="219" y="-4135.2" font-family="Courier,monospace" font-size="11.00">message_type</text>
</g>
<!-- \\message_db -->
<g id="node3" class="node"><title>\\message_db</title>
<polygon fill="none" stroke="black" points="261,-4102 177,-4102 177,-4066 261,-4066 261,-4102"/>
<text text-anchor="middle" x="219" y="-4081.2" font-family="Courier,monospace" font-size="11.00">message_db</text>
</g>
<!-- \\message_http -->
<g id="node4" class="node"><title>\\message_http</title>
<polygon fill="none" stroke="black" points="268,-4048 170,-4048 170,-4012 268,-4012 268,-4048"/>
<text text-anchor="middle" x="219" y="-4027.2" font-family="Courier,monospace" font-size="11.00">message_http</text>
</g>
<!-- \\message_chat -->
<g id="node5" class="node"><title>\\message_chat</title>
<polygon fill="none" stroke="black" points="268,-3994 170,-3994 170,-3958 268,-3958 268,-3994"/>
<text text-anchor="middle" x="219" y="-3973.2" font-family="Courier,monospace" font-size="11.00">message_chat</text>
</g>
<!-- \\message_api -->
<g id="node6" class="node"><title>\\message_api</title>
<polygon fill="none" stroke="black" points="264.5,-3940 173.5,-3940 173.5,-3904 264.5,-3904 264.5,-3940"/>
<text text-anchor="middle" x="219" y="-3919.2" font-family="Courier,monospace" font-size="11.00">message_api</text>
</g>
<!-- \\course_adminstatus -->
<g id="node7" class="node"><title>\\course_adminstatus</title>
<polygon fill="none" stroke="black" points="288,-3886 150,-3886 150,-3850 288,-3850 288,-3886"/>
<text text-anchor="middle" x="219" y="-3865.2" font-family="Courier,monospace" font-size="11.00">course_adminstatus</text>
</g>
<!-- \\course_detail -->
<g id="node8" class="node"><title>\\course_detail</title>
<polygon fill="none" stroke="black" points="271,-3832 167,-3832 167,-3796 271,-3796 271,-3832"/>
<text text-anchor="middle" x="219" y="-3811.2" font-family="Courier,monospace" font-size="11.00">course_detail</text>
</g>
<!-- \\course_mydiscount -->
<g id="node9" class="node"><title>\\course_mydiscount</title>
<polygon fill="none" stroke="black" points="284.5,-3778 153.5,-3778 153.5,-3742 284.5,-3742 284.5,-3778"/>
<text text-anchor="middle" x="219" y="-3757.2" font-family="Courier,monospace" font-size="11.00">course_mydiscount</text>
</g>
<!-- \\course_section -->
<g id="node10" class="node"><title>\\course_section</title>
<polygon fill="none" stroke="black" points="274.5,-3724 163.5,-3724 163.5,-3688 274.5,-3688 274.5,-3724"/>
<text text-anchor="middle" x="219" y="-3703.2" font-family="Courier,monospace" font-size="11.00">course_section</text>
</g>
<!-- \\course_db -->
<g id="node11" class="node"><title>\\course_db</title>
<polygon fill="none" stroke="black" points="257.5,-3670 180.5,-3670 180.5,-3634 257.5,-3634 257.5,-3670"/>
<text text-anchor="middle" x="219" y="-3649.2" font-family="Courier,monospace" font-size="11.00">course_db</text>
</g>
<!-- \\course_video -->
<g id="node12" class="node"><title>\\course_video</title>
<polygon fill="none" stroke="black" points="268,-3616 170,-3616 170,-3580 268,-3580 268,-3616"/>
<text text-anchor="middle" x="219" y="-3595.2" font-family="Courier,monospace" font-size="11.00">course_video</text>
</g>
<!-- \\course_cate -->
<g id="node13" class="node"><title>\\course_cate</title>
<polygon fill="none" stroke="black" points="264.5,-3562 173.5,-3562 173.5,-3526 264.5,-3526 264.5,-3562"/>
<text text-anchor="middle" x="219" y="-3541.2" font-family="Courier,monospace" font-size="11.00">course_cate</text>
</g>
<!-- \\course_info -->
<g id="node14" class="node"><title>\\course_info</title>
<polygon fill="none" stroke="black" points="264.5,-3508 173.5,-3508 173.5,-3472 264.5,-3472 264.5,-3508"/>
<text text-anchor="middle" x="219" y="-3487.2" font-family="Courier,monospace" font-size="11.00">course_info</text>
</g>
<!-- \\course_feeorder -->
<g id="node15" class="node"><title>\\course_feeorder</title>
<polygon fill="none" stroke="black" points="278,-3454 160,-3454 160,-3418 278,-3418 278,-3454"/>
<text text-anchor="middle" x="219" y="-3433.2" font-family="Courier,monospace" font-size="11.00">course_feeorder</text>
</g>
<!-- \\course_live -->
<g id="node16" class="node"><title>\\course_live</title>
<polygon fill="none" stroke="black" points="264.5,-3400 173.5,-3400 173.5,-3364 264.5,-3364 264.5,-3400"/>
<text text-anchor="middle" x="219" y="-3379.2" font-family="Courier,monospace" font-size="11.00">course_live</text>
</g>
<!-- \\course_discount -->
<g id="node17" class="node"><title>\\course_discount</title>
<polygon fill="none" stroke="black" points="278,-3346 160,-3346 160,-3310 278,-3310 278,-3346"/>
<text text-anchor="middle" x="219" y="-3325.2" font-family="Courier,monospace" font-size="11.00">course_discount</text>
</g>
<!-- \\course_status -->
<g id="node18" class="node"><title>\\course_status</title>
<polygon fill="none" stroke="black" points="271,-3292 167,-3292 167,-3256 271,-3256 271,-3292"/>
<text text-anchor="middle" x="219" y="-3271.2" font-family="Courier,monospace" font-size="11.00">course_status</text>
</g>
<!-- \\course_class -->
<g id="node19" class="node"><title>\\course_class</title>
<polygon fill="none" stroke="black" points="268,-3238 170,-3238 170,-3202 268,-3202 268,-3238"/>
<text text-anchor="middle" x="219" y="-3217.2" font-family="Courier,monospace" font-size="11.00">course_class</text>
</g>
<!-- \\course_plan -->
<g id="node20" class="node"><title>\\course_plan</title>
<polygon fill="none" stroke="black" points="264.5,-3184 173.5,-3184 173.5,-3148 264.5,-3148 264.5,-3184"/>
<text text-anchor="middle" x="219" y="-3163.2" font-family="Courier,monospace" font-size="11.00">course_plan</text>
</g>
<!-- \\course_order -->
<g id="node21" class="node"><title>\\course_order</title>
<polygon fill="none" stroke="black" points="268,-3130 170,-3130 170,-3094 268,-3094 268,-3130"/>
<text text-anchor="middle" x="219" y="-3109.2" font-family="Courier,monospace" font-size="11.00">course_order</text>
</g>
<!-- \\course_api -->
<g id="node22" class="node"><title>\\course_api</title>
<polygon fill="none" stroke="black" points="261,-3076 177,-3076 177,-3040 261,-3040 261,-3076"/>
<text text-anchor="middle" x="219" y="-3055.2" font-family="Courier,monospace" font-size="11.00">course_api</text>
</g>
<!-- \\course_grade -->
<g id="node23" class="node"><title>\\course_grade</title>
<polygon fill="none" stroke="black" points="268,-3022 170,-3022 170,-2986 268,-2986 268,-3022"/>
<text text-anchor="middle" x="219" y="-3001.2" font-family="Courier,monospace" font-size="11.00">course_grade</text>
</g>
<!-- \\log_db -->
<g id="node24" class="node"><title>\\log_db</title>
<polygon fill="none" stroke="black" points="247.5,-2968 190.5,-2968 190.5,-2932 247.5,-2932 247.5,-2968"/>
<text text-anchor="middle" x="219" y="-2947.2" font-family="Courier,monospace" font-size="11.00">log_db</text>
</g>
<!-- \\log_log -->
<g id="node25" class="node"><title>\\log_log</title>
<polygon fill="none" stroke="black" points="251,-2914 187,-2914 187,-2878 251,-2878 251,-2914"/>
<text text-anchor="middle" x="219" y="-2893.2" font-family="Courier,monospace" font-size="11.00">log_log</text>
</g>
<!-- \\task_db -->
<g id="node26" class="node"><title>\\task_db</title>
<polygon fill="none" stroke="black" points="251,-2860 187,-2860 187,-2824 251,-2824 251,-2860"/>
<text text-anchor="middle" x="219" y="-2839.2" font-family="Courier,monospace" font-size="11.00">task_db</text>
</g>
<!-- \\activity_2014 -->
<g id="node27" class="node"><title>\\activity_2014</title>
<polygon fill="none" stroke="black" points="271,-2806 167,-2806 167,-2770 271,-2770 271,-2806"/>
<text text-anchor="middle" x="219" y="-2785.2" font-family="Courier,monospace" font-size="11.00">activity_2014</text>
</g>
<!-- \\activity_db -->
<g id="node28" class="node"><title>\\activity_db</title>
<polygon fill="none" stroke="black" points="264.5,-2752 173.5,-2752 173.5,-2716 264.5,-2716 264.5,-2752"/>
<text text-anchor="middle" x="219" y="-2731.2" font-family="Courier,monospace" font-size="11.00">activity_db</text>
</g>
<!-- \\file_db -->
<g id="node29" class="node"><title>\\file_db</title>
<polygon fill="none" stroke="black" points="251,-2698 187,-2698 187,-2662 251,-2662 251,-2698"/>
<text text-anchor="middle" x="219" y="-2677.2" font-family="Courier,monospace" font-size="11.00">file_db</text>
</g>
<!-- \\file_info -->
<g id="node30" class="node"><title>\\file_info</title>
<polygon fill="none" stroke="black" points="257.5,-2644 180.5,-2644 180.5,-2608 257.5,-2608 257.5,-2644"/>
<text text-anchor="middle" x="219" y="-2623.2" font-family="Courier,monospace" font-size="11.00">file_info</text>
</g>
<!-- \\rbac_db -->
<g id="node31" class="node"><title>\\rbac_db</title>
<polygon fill="none" stroke="black" points="251,-2590 187,-2590 187,-2554 251,-2554 251,-2590"/>
<text text-anchor="middle" x="219" y="-2569.2" font-family="Courier,monospace" font-size="11.00">rbac_db</text>
</g>
<!-- \\rbac_info -->
<g id="node32" class="node"><title>\\rbac_info</title>
<polygon fill="none" stroke="black" points="257.5,-2536 180.5,-2536 180.5,-2500 257.5,-2500 257.5,-2536"/>
<text text-anchor="middle" x="219" y="-2515.2" font-family="Courier,monospace" font-size="11.00">rbac_info</text>
</g>
<!-- \\verify_test -->
<g id="node33" class="node"><title>\\verify_test</title>
<polygon fill="none" stroke="black" points="264.5,-2482 173.5,-2482 173.5,-2446 264.5,-2446 264.5,-2482"/>
<text text-anchor="middle" x="219" y="-2461.2" font-family="Courier,monospace" font-size="11.00">verify_test</text>
</g>
<!-- \\verify_db -->
<g id="node34" class="node"><title>\\verify_db</title>
<polygon fill="none" stroke="black" points="257.5,-2428 180.5,-2428 180.5,-2392 257.5,-2392 257.5,-2428"/>
<text text-anchor="middle" x="219" y="-2407.2" font-family="Courier,monospace" font-size="11.00">verify_db</text>
</g>
<!-- \\verify_check -->
<g id="node35" class="node"><title>\\verify_check</title>
<polygon fill="none" stroke="black" points="268,-2374 170,-2374 170,-2338 268,-2338 268,-2374"/>
<text text-anchor="middle" x="219" y="-2353.2" font-family="Courier,monospace" font-size="11.00">verify_check</text>
</g>
<!-- \\verify_query -->
<g id="node36" class="node"><title>\\verify_query</title>
<polygon fill="none" stroke="black" points="268,-2320 170,-2320 170,-2284 268,-2284 268,-2320"/>
<text text-anchor="middle" x="219" y="-2299.2" font-family="Courier,monospace" font-size="11.00">verify_query</text>
</g>
<!-- \\verify_send -->
<g id="node37" class="node"><title>\\verify_send</title>
<polygon fill="none" stroke="black" points="264.5,-2266 173.5,-2266 173.5,-2230 264.5,-2230 264.5,-2266"/>
<text text-anchor="middle" x="219" y="-2245.2" font-family="Courier,monospace" font-size="11.00">verify_send</text>
</g>
<!-- \\verify_api -->
<g id="node38" class="node"><title>\\verify_api</title>
<polygon fill="none" stroke="black" points="261,-2212 177,-2212 177,-2176 261,-2176 261,-2212"/>
<text text-anchor="middle" x="219" y="-2191.2" font-family="Courier,monospace" font-size="11.00">verify_api</text>
</g>
<!-- \\seek_course1 -->
<g id="node39" class="node"><title>\\seek_course1</title>
<polygon fill="none" stroke="black" points="268,-2158 170,-2158 170,-2122 268,-2122 268,-2158"/>
<text text-anchor="middle" x="219" y="-2137.2" font-family="Courier,monospace" font-size="11.00">seek_course1</text>
</g>
<!-- \\seek_course -->
<g id="node40" class="node"><title>\\seek_course</title>
<polygon fill="none" stroke="black" points="264.5,-2104 173.5,-2104 173.5,-2068 264.5,-2068 264.5,-2104"/>
<text text-anchor="middle" x="219" y="-2083.2" font-family="Courier,monospace" font-size="11.00">seek_course</text>
</g>
<!-- \\SphinxClient -->
<g id="node41" class="node"><title>\\SphinxClient</title>
<polygon fill="none" stroke="black" points="268,-2050 170,-2050 170,-2014 268,-2014 268,-2050"/>
<text text-anchor="middle" x="219" y="-2029.2" font-family="Courier,monospace" font-size="11.00">SphinxClient</text>
</g>
<!-- \\live_file -->
<g id="node42" class="node"><title>\\live_file</title>
<polygon fill="none" stroke="black" points="257.5,-1996 180.5,-1996 180.5,-1960 257.5,-1960 257.5,-1996"/>
<text text-anchor="middle" x="219" y="-1975.2" font-family="Courier,monospace" font-size="11.00">live_file</text>
</g>
<!-- \\live_db -->
<g id="node43" class="node"><title>\\live_db</title>
<polygon fill="none" stroke="black" points="251,-1942 187,-1942 187,-1906 251,-1906 251,-1942"/>
<text text-anchor="middle" x="219" y="-1921.2" font-family="Courier,monospace" font-size="11.00">live_db</text>
</g>
<!-- \\live_video -->
<g id="node44" class="node"><title>\\live_video</title>
<polygon fill="none" stroke="black" points="261,-1888 177,-1888 177,-1852 261,-1852 261,-1888"/>
<text text-anchor="middle" x="219" y="-1867.2" font-family="Courier,monospace" font-size="11.00">live_video</text>
</g>
<!-- \\live_publish -->
<g id="node45" class="node"><title>\\live_publish</title>
<polygon fill="none" stroke="black" points="268,-1834 170,-1834 170,-1798 268,-1798 268,-1834"/>
<text text-anchor="middle" x="219" y="-1813.2" font-family="Courier,monospace" font-size="11.00">live_publish</text>
</g>
<!-- \\live_play -->
<g id="node46" class="node"><title>\\live_play</title>
<polygon fill="none" stroke="black" points="257.5,-1780 180.5,-1780 180.5,-1744 257.5,-1744 257.5,-1780"/>
<text text-anchor="middle" x="219" y="-1759.2" font-family="Courier,monospace" font-size="11.00">live_play</text>
</g>
<!-- \\live_chat -->
<g id="node47" class="node"><title>\\live_chat</title>
<polygon fill="none" stroke="black" points="257.5,-1726 180.5,-1726 180.5,-1690 257.5,-1690 257.5,-1726"/>
<text text-anchor="middle" x="219" y="-1705.2" font-family="Courier,monospace" font-size="11.00">live_chat</text>
</g>
<!-- \\live_api -->
<g id="node48" class="node"><title>\\live_api</title>
<polygon fill="none" stroke="black" points="254.5,-1672 183.5,-1672 183.5,-1636 254.5,-1636 254.5,-1672"/>
<text text-anchor="middle" x="219" y="-1651.2" font-family="Courier,monospace" font-size="11.00">live_api</text>
</g>
<!-- \\weixin_auth -->
<g id="node49" class="node"><title>\\weixin_auth</title>
<polygon fill="none" stroke="black" points="264.5,-1618 173.5,-1618 173.5,-1582 264.5,-1582 264.5,-1618"/>
<text text-anchor="middle" x="219" y="-1597.2" font-family="Courier,monospace" font-size="11.00">weixin_auth</text>
</g>
<!-- \\weixin_db -->
<g id="node50" class="node"><title>\\weixin_db</title>
<polygon fill="none" stroke="black" points="257.5,-1564 180.5,-1564 180.5,-1528 257.5,-1528 257.5,-1564"/>
<text text-anchor="middle" x="219" y="-1543.2" font-family="Courier,monospace" font-size="11.00">weixin_db</text>
</g>
<!-- \\weixin_message -->
<g id="node51" class="node"><title>\\weixin_message</title>
<polygon fill="none" stroke="black" points="274.5,-1510 163.5,-1510 163.5,-1474 274.5,-1474 274.5,-1510"/>
<text text-anchor="middle" x="219" y="-1489.2" font-family="Courier,monospace" font-size="11.00">weixin_message</text>
</g>
<!-- \\weixin_api -->
<g id="node52" class="node"><title>\\weixin_api</title>
<polygon fill="none" stroke="black" points="261,-1456 177,-1456 177,-1420 261,-1420 261,-1456"/>
<text text-anchor="middle" x="219" y="-1435.2" font-family="Courier,monospace" font-size="11.00">weixin_api</text>
</g>
<!-- \\region_db -->
<g id="node53" class="node"><title>\\region_db</title>
<polygon fill="none" stroke="black" points="257.5,-1402 180.5,-1402 180.5,-1366 257.5,-1366 257.5,-1402"/>
<text text-anchor="middle" x="219" y="-1381.2" font-family="Courier,monospace" font-size="11.00">region_db</text>
</g>
<!-- \\region_main -->
<g id="node54" class="node"><title>\\region_main</title>
<polygon fill="none" stroke="black" points="264.5,-1348 173.5,-1348 173.5,-1312 264.5,-1312 264.5,-1348"/>
<text text-anchor="middle" x="219" y="-1327.2" font-family="Courier,monospace" font-size="11.00">region_main</text>
</g>
<!-- \\comment_course -->
<g id="node55" class="node"><title>\\comment_course</title>
<polygon fill="none" stroke="black" points="274.5,-1294 163.5,-1294 163.5,-1258 274.5,-1258 274.5,-1294"/>
<text text-anchor="middle" x="219" y="-1273.2" font-family="Courier,monospace" font-size="11.00">comment_course</text>
</g>
<!-- \\comment_db -->
<g id="node56" class="node"><title>\\comment_db</title>
<polygon fill="none" stroke="black" points="261,-1240 177,-1240 177,-1204 261,-1204 261,-1240"/>
<text text-anchor="middle" x="219" y="-1219.2" font-family="Courier,monospace" font-size="11.00">comment_db</text>
</g>
<!-- \\censor_test -->
<g id="node57" class="node"><title>\\censor_test</title>
<polygon fill="none" stroke="black" points="264.5,-1186 173.5,-1186 173.5,-1150 264.5,-1150 264.5,-1186"/>
<text text-anchor="middle" x="219" y="-1165.2" font-family="Courier,monospace" font-size="11.00">censor_test</text>
</g>
<!-- \\censor_db -->
<g id="node58" class="node"><title>\\censor_db</title>
<polygon fill="none" stroke="black" points="257.5,-1132 180.5,-1132 180.5,-1096 257.5,-1096 257.5,-1132"/>
<text text-anchor="middle" x="219" y="-1111.2" font-family="Courier,monospace" font-size="11.00">censor_db</text>
</g>
<!-- \\user_teacher -->
<g id="node59" class="node"><title>\\user_teacher</title>
<polygon fill="none" stroke="black" points="268,-1078 170,-1078 170,-1042 268,-1042 268,-1078"/>
<text text-anchor="middle" x="219" y="-1057.2" font-family="Courier,monospace" font-size="11.00">user_teacher</text>
</g>
<!-- \\user_auth -->
<g id="node60" class="node"><title>\\user_auth</title>
<polygon fill="none" stroke="black" points="257.5,-1024 180.5,-1024 180.5,-988 257.5,-988 257.5,-1024"/>
<text text-anchor="middle" x="219" y="-1003.2" font-family="Courier,monospace" font-size="11.00">user_auth</text>
</g>
<!-- \\user_organization -->
<g id="node61" class="node"><title>\\user_organization</title>
<polygon fill="none" stroke="black" points="284.5,-970 153.5,-970 153.5,-934 284.5,-934 284.5,-970"/>
<text text-anchor="middle" x="219" y="-949.2" font-family="Courier,monospace" font-size="11.00">user_organization</text>
</g>
<!-- \\user_test -->
<g id="node62" class="node"><title>\\user_test</title>
<polygon fill="none" stroke="black" points="257.5,-916 180.5,-916 180.5,-880 257.5,-880 257.5,-916"/>
<text text-anchor="middle" x="219" y="-895.2" font-family="Courier,monospace" font-size="11.00">user_test</text>
</g>
<!-- \\user_db -->
<g id="node63" class="node"><title>\\user_db</title>
<polygon fill="none" stroke="black" points="251,-862 187,-862 187,-826 251,-826 251,-862"/>
<text text-anchor="middle" x="219" y="-841.2" font-family="Courier,monospace" font-size="11.00">user_db</text>
</g>
<!-- \\user_parterner -->
<g id="node64" class="node"><title>\\user_parterner</title>
<polygon fill="none" stroke="black" points="274.5,-808 163.5,-808 163.5,-772 274.5,-772 274.5,-808"/>
<text text-anchor="middle" x="219" y="-787.2" font-family="Courier,monospace" font-size="11.00">user_parterner</text>
</g>
<!-- \\user_const -->
<g id="node65" class="node"><title>\\user_const</title>
<polygon fill="none" stroke="black" points="261,-754 177,-754 177,-718 261,-718 261,-754"/>
<text text-anchor="middle" x="219" y="-733.2" font-family="Courier,monospace" font-size="11.00">user_const</text>
</g>
<!-- \\user_info -->
<g id="node66" class="node"><title>\\user_info</title>
<polygon fill="none" stroke="black" points="257.5,-700 180.5,-700 180.5,-664 257.5,-664 257.5,-700"/>
<text text-anchor="middle" x="219" y="-679.2" font-family="Courier,monospace" font-size="11.00">user_info</text>
</g>
<!-- \\user_profile -->
<g id="node67" class="node"><title>\\user_profile</title>
<polygon fill="none" stroke="black" points="268,-646 170,-646 170,-610 268,-610 268,-646"/>
<text text-anchor="middle" x="219" y="-625.2" font-family="Courier,monospace" font-size="11.00">user_profile</text>
</g>
<!-- \\user_student -->
<g id="node68" class="node"><title>\\user_student</title>
<polygon fill="none" stroke="black" points="268,-592 170,-592 170,-556 268,-556 268,-592"/>
<text text-anchor="middle" x="219" y="-571.2" font-family="Courier,monospace" font-size="11.00">user_student</text>
</g>
<!-- \\user_task -->
<g id="node69" class="node"><title>\\user_task</title>
<polygon fill="none" stroke="black" points="257.5,-538 180.5,-538 180.5,-502 257.5,-502 257.5,-538"/>
<text text-anchor="middle" x="219" y="-517.2" font-family="Courier,monospace" font-size="11.00">user_task</text>
</g>
<!-- \\user_token -->
<g id="node70" class="node"><title>\\user_token</title>
<polygon fill="none" stroke="black" points="261,-484 177,-484 177,-448 261,-448 261,-484"/>
<text text-anchor="middle" x="219" y="-463.2" font-family="Courier,monospace" font-size="11.00">user_token</text>
</g>
<!-- \\user_api -->
<g id="node71" class="node"><title>\\user_api</title>
<polygon fill="none" stroke="black" points="254.5,-430 183.5,-430 183.5,-394 254.5,-394 254.5,-430"/>
<text text-anchor="middle" x="219" y="-409.2" font-family="Courier,monospace" font-size="11.00">user_api</text>
</g>
<!-- \\admin_user -->
<g id="node72" class="node"><title>\\admin_user</title>
<polygon fill="none" stroke="black" points="261,-376 177,-376 177,-340 261,-340 261,-376"/>
<text text-anchor="middle" x="219" y="-355.2" font-family="Courier,monospace" font-size="11.00">admin_user</text>
</g>
<!-- \\admin_db -->
<g id="node73" class="node"><title>\\admin_db</title>
<polygon fill="none" stroke="black" points="254.5,-322 183.5,-322 183.5,-286 254.5,-286 254.5,-322"/>
<text text-anchor="middle" x="219" y="-301.2" font-family="Courier,monospace" font-size="11.00">admin_db</text>
</g>
<!-- \\utility_mobile -->
<g id="node74" class="node"><title>\\utility_mobile</title>
<polygon fill="none" stroke="black" points="274.5,-268 163.5,-268 163.5,-232 274.5,-232 274.5,-268"/>
<text text-anchor="middle" x="219" y="-247.2" font-family="Courier,monospace" font-size="11.00">utility_mobile</text>
</g>
<!-- \\utility_net -->
<g id="node75" class="node"><title>\\utility_net</title>
<polygon fill="none" stroke="black" points="264.5,-214 173.5,-214 173.5,-178 264.5,-178 264.5,-214"/>
<text text-anchor="middle" x="219" y="-193.2" font-family="Courier,monospace" font-size="11.00">utility_net</text>
</g>
<!-- \\utility_ip -->
<g id="node76" class="node"><title>\\utility_ip</title>
<polygon fill="none" stroke="black" points="261,-160 177,-160 177,-124 261,-124 261,-160"/>
<text text-anchor="middle" x="219" y="-139.2" font-family="Courier,monospace" font-size="11.00">utility_ip</text>
</g>
<!-- \\utility_valid -->
<g id="node77" class="node"><title>\\utility_valid</title>
<polygon fill="none" stroke="black" points="271,-106 167,-106 167,-70 271,-70 271,-106"/>
<text text-anchor="middle" x="219" y="-85.2" font-family="Courier,monospace" font-size="11.00">utility_valid</text>
</g>
<!-- \\redis_api -->
<g id="node78" class="node"><title>\\redis_api</title>
<polygon fill="none" stroke="black" points="257.5,-52 180.5,-52 180.5,-16 257.5,-16 257.5,-52"/>
<text text-anchor="middle" x="219" y="-31.2" font-family="Courier,monospace" font-size="11.00">redis_api</text>
</g>
<!-- \\SRedis -->
<g id="node79" class="node"><title>\\SRedis</title>
<ellipse fill="none" stroke="black" cx="39" cy="-34" rx="38.1938" ry="18"/>
<text text-anchor="middle" x="39" y="-30.3" font-family="Times,serif" font-size="14.00" fill="gray">\SRedis</text>
</g>
<!-- \\redis_api&#45;&gt;\\SRedis -->
<g id="edge1" class="edge"><title>\\redis_api&#45;&gt;\\SRedis</title>
<path fill="none" stroke="black" d="M180.251,-34C153.257,-34 116.72,-34 87.7066,-34"/>
<polygon fill="none" stroke="black" points="87.3892,-30.5001 77.3892,-34 87.3892,-37.5001 87.3892,-30.5001"/>
</g>
</g>
</svg>
